<svg width="600" height="880" viewBox="0 0 600 880" fill="none" xmlns="http://www.w3.org/2000/svg">
<rect width="600" height="880" fill="#075700"/>
<line y1="440" x2="600" y2="440" stroke="white" stroke-width="10"/>
<circle cx="300" cy="440" r="67" stroke="white" stroke-width="10"/>
<circle cx="300" cy="440" r="10" fill="white"/>
<circle cx="300" cy="124" r="5" fill="white"/>
<circle cx="300" cy="756" r="5" fill="white"/>
<mask id="path-7-inside-1_9_16" fill="white">
<path d="M188 0H412V80H188V0Z"/>
</mask>
<path d="M412 80V90H422V80H412ZM188 80H178V90H188V80ZM402 0V80H422V0H402ZM412 70H188V90H412V70ZM198 80V0H178V80H198Z" fill="white" mask="url(#path-7-inside-1_9_16)"/>
<mask id="path-9-inside-2_9_16" fill="white">
<path d="M122 0H478V168H122V0Z"/>
</mask>
<path d="M478 168V178H488V168H478ZM122 168H112V178H122V168ZM468 0V168H488V0H468ZM478 158H122V178H478V158ZM132 168V0H112V168H132Z" fill="white" mask="url(#path-9-inside-2_9_16)"/>
<mask id="path-11-inside-3_9_16" fill="white">
<path d="M478 880L122 880L122 712L478 712L478 880Z"/>
</mask>
<path d="M122 712L122 702L112 702L112 712L122 712ZM478 712L488 712L488 702L478 702L478 712ZM132 880L132 712L112 712L112 880L132 880ZM122 722L478 722L478 702L122 702L122 722ZM468 712L468 880L488 880L488 712L468 712Z" fill="white" mask="url(#path-11-inside-3_9_16)"/>
<mask id="path-13-inside-4_9_16" fill="white">
<path d="M412 880L188 880L188 800L412 800L412 880Z"/>
</mask>
<path d="M188 800L188 790L178 790L178 800L188 800ZM412 800L422 800L422 790L412 790L412 800ZM198 880L198 800L178 800L178 880L198 880ZM188 810L412 810L412 790L188 790L188 810ZM402 800L402 880L422 880L422 800L402 800Z" fill="white" mask="url(#path-13-inside-4_9_16)"/>
<mask id="path-15-inside-5_9_16" fill="white">
<path d="M350 722C350 715.434 348.707 708.932 346.194 702.866C343.681 696.8 339.998 691.288 335.355 686.645C330.712 682.002 325.2 678.319 319.134 675.806C313.068 673.293 306.566 672 300 672C293.434 672 286.932 673.293 280.866 675.806C274.8 678.319 269.288 682.002 264.645 686.645C260.002 691.288 256.319 696.8 253.806 702.866C251.293 708.932 250 715.434 250 722L300 722H350Z"/>
</mask>
<path d="M350 722C350 715.434 348.707 708.932 346.194 702.866C343.681 696.8 339.998 691.288 335.355 686.645C330.712 682.002 325.2 678.319 319.134 675.806C313.068 673.293 306.566 672 300 672C293.434 672 286.932 673.293 280.866 675.806C274.8 678.319 269.288 682.002 264.645 686.645C260.002 691.288 256.319 696.8 253.806 702.866C251.293 708.932 250 715.434 250 722L300 722H350Z" stroke="white" stroke-width="20" mask="url(#path-15-inside-5_9_16)"/>
<path d="M350 722C350 715.434 348.707 708.932 346.194 702.866C343.681 696.8 339.998 691.288 335.355 686.645C330.712 682.002 325.2 678.319 319.134 675.806C313.068 673.293 306.566 672 300 672C293.434 672 286.932 673.293 280.866 675.806C274.8 678.319 269.288 682.002 264.645 686.645C260.002 691.288 256.319 696.8 253.806 702.866C251.293 708.932 250 715.434 250 722L300 722H350Z" stroke="white" stroke-width="20" mask="url(#path-15-inside-5_9_16)"/>
<path d="M350 722C350 715.434 348.707 708.932 346.194 702.866C343.681 696.8 339.998 691.288 335.355 686.645C330.712 682.002 325.2 678.319 319.134 675.806C313.068 673.293 306.566 672 300 672C293.434 672 286.932 673.293 280.866 675.806C274.8 678.319 269.288 682.002 264.645 686.645C260.002 691.288 256.319 696.8 253.806 702.866C251.293 708.932 250 715.434 250 722L300 722H350Z" stroke="white" stroke-width="20" mask="url(#path-15-inside-5_9_16)"/>
<mask id="path-16-inside-6_9_16" fill="white">
<path d="M250 158C250 164.566 251.293 171.068 253.806 177.134C256.319 183.2 260.002 188.712 264.645 193.355C269.288 197.998 274.8 201.681 280.866 204.194C286.932 206.707 293.434 208 300 208C306.566 208 313.068 206.707 319.134 204.194C325.2 201.681 330.712 197.998 335.355 193.355C339.998 188.712 343.681 183.2 346.194 177.134C348.707 171.068 350 164.566 350 158L300 158L250 158Z"/>
</mask>
<path d="M250 158C250 164.566 251.293 171.068 253.806 177.134C256.319 183.2 260.002 188.712 264.645 193.355C269.288 197.998 274.8 201.681 280.866 204.194C286.932 206.707 293.434 208 300 208C306.566 208 313.068 206.707 319.134 204.194C325.2 201.681 330.712 197.998 335.355 193.355C339.998 188.712 343.681 183.2 346.194 177.134C348.707 171.068 350 164.566 350 158L300 158L250 158Z" stroke="white" stroke-width="20" mask="url(#path-16-inside-6_9_16)"/>
<path d="M250 158C250 164.566 251.293 171.068 253.806 177.134C256.319 183.2 260.002 188.712 264.645 193.355C269.288 197.998 274.8 201.681 280.866 204.194C286.932 206.707 293.434 208 300 208C306.566 208 313.068 206.707 319.134 204.194C325.2 201.681 330.712 197.998 335.355 193.355C339.998 188.712 343.681 183.2 346.194 177.134C348.707 171.068 350 164.566 350 158L300 158L250 158Z" stroke="white" stroke-width="20" mask="url(#path-16-inside-6_9_16)"/>
<path d="M250 158C250 164.566 251.293 171.068 253.806 177.134C256.319 183.2 260.002 188.712 264.645 193.355C269.288 197.998 274.8 201.681 280.866 204.194C286.932 206.707 293.434 208 300 208C306.566 208 313.068 206.707 319.134 204.194C325.2 201.681 330.712 197.998 335.355 193.355C339.998 188.712 343.681 183.2 346.194 177.134C348.707 171.068 350 164.566 350 158L300 158L250 158Z" stroke="white" stroke-width="20" mask="url(#path-16-inside-6_9_16)"/>
</svg>
