<svg width="80" height="80" viewBox="0 0 80 80" fill="none" xmlns="http://www.w3.org/2000/svg">
<path d="M39.8484 5.28328C39.562 5.28141 39.2755 5.28297 38.9891 5.28797C37.9375 5.30985 36.8856 5.3825 35.8398 5.49797C35.8919 5.52391 35.9248 5.54797 35.9133 5.56641L31.9969 11.7286L43.5448 19.4531L43.5253 19.4825L54.5605 19.5263L57.9688 12.3878L53.5694 8.125C51.0897 7.06197 48.4961 6.2871 45.8397 5.81563C43.8631 5.46563 41.8558 5.29063 39.8486 5.28328H39.8484ZM29.8292 13.7891L18.3205 19.5359L16.1622 34.912L24.1847 40.1709L38.9261 33.3838L41.2503 21.4306L29.8294 13.7891H29.8292ZM60.508 13.8428L57.1877 20.7959L62.9298 32.1584L72.6272 38.2373L74.3947 34.912C74.4298 34.9344 74.465 34.975 74.4972 35.0292C74.3769 34.2552 74.23 33.4834 74.0581 32.7195C73.0509 28.2523 71.1534 23.9755 68.5113 20.2242C67.0941 18.213 65.4603 16.3527 63.6527 14.6773L60.5081 13.8427L60.508 13.8428ZM13.218 17.4366C12.1389 18.6936 11.1466 20.0241 10.2589 21.4209C7.80953 25.2747 6.12765 29.6231 5.34687 34.1259C4.96667 36.3232 4.79819 38.5518 4.84375 40.7813L8.00781 41.5772L13.1687 35.2491L15.4297 19.1453L13.218 17.4366ZM62.0803 35.0684L53.3595 42.0606L52.8173 57.8564L59.0089 61.1574L71.0695 53.4083L71.758 41.1036L71.7433 41.1281L62.0802 35.0683L62.0803 35.0684ZM40.0734 36.0694L25.3808 42.8369L25.1905 54.8095L39.1209 63.7745L49.8925 58.0813L50.4295 42.1828L40.0733 36.0694H40.0734ZM5.03906 43.8428C5.18125 45.1609 5.39687 46.4703 5.68843 47.7638C6.69546 52.2309 8.59781 56.5075 11.2403 60.2588C11.8455 61.1181 12.4934 61.947 13.1737 62.7491L11.7091 55.2247L11.7284 55.2197L7.505 44.4628L5.03906 43.8428ZM23.3497 57.0997L15.2978 58.3741L16.8798 66.5138C18.2196 67.6846 19.6463 68.7521 21.1477 69.707C23.4359 71.1595 25.8836 72.344 28.4425 73.2374L38.2278 71.0983L37.5491 66.2352L23.3498 57.0992L23.3497 57.0997ZM70.6055 57.1778L60.5711 63.6231L54.0086 71.0255L54.6973 71.9874C56.5766 71.1209 58.3802 70.0899 60.0733 68.9061C63.8186 66.2873 67.0427 62.9211 69.492 59.067C69.8842 58.4503 70.253 57.8186 70.6053 57.1777L70.6055 57.1778ZM51.4211 72.4366L38.9305 73.9405L34.873 74.8241C39.0906 75.4491 43.4225 75.2997 47.5781 74.3845C49.0488 74.0608 50.4975 73.6361 51.9141 73.1248L51.4209 72.4364L51.4211 72.4366Z" fill="#075700"/>
</svg>
