<svg width="298" height="80" viewBox="0 0 298 80" fill="none" xmlns="http://www.w3.org/2000/svg">
<path d="M39.8484 5.28328C39.562 5.28141 39.2755 5.28297 38.9891 5.28797C37.9375 5.30985 36.8856 5.3825 35.8398 5.49797C35.8919 5.52391 35.9248 5.54797 35.9133 5.56641L31.9969 11.7286L43.5448 19.4531L43.5253 19.4825L54.5605 19.5263L57.9688 12.3878L53.5694 8.125C51.0897 7.06197 48.4961 6.2871 45.8397 5.81563C43.8631 5.46563 41.8558 5.29063 39.8486 5.28328H39.8484ZM29.8292 13.7891L18.3205 19.5359L16.1622 34.912L24.1847 40.1709L38.9261 33.3838L41.2503 21.4306L29.8294 13.7891H29.8292ZM60.508 13.8428L57.1877 20.7959L62.9298 32.1584L72.6272 38.2373L74.3947 34.912C74.4298 34.9344 74.465 34.975 74.4972 35.0292C74.3769 34.2552 74.23 33.4834 74.0581 32.7195C73.0509 28.2523 71.1534 23.9755 68.5113 20.2242C67.0941 18.213 65.4603 16.3527 63.6527 14.6773L60.5081 13.8427L60.508 13.8428ZM13.218 17.4366C12.1389 18.6936 11.1466 20.0241 10.2589 21.4209C7.80953 25.2747 6.12765 29.6231 5.34687 34.1259C4.96667 36.3232 4.79819 38.5518 4.84375 40.7813L8.00781 41.5772L13.1687 35.2491L15.4297 19.1453L13.218 17.4366ZM62.0803 35.0684L53.3595 42.0606L52.8173 57.8564L59.0089 61.1574L71.0695 53.4083L71.758 41.1036L71.7433 41.1281L62.0802 35.0683L62.0803 35.0684ZM40.0734 36.0694L25.3808 42.8369L25.1905 54.8095L39.1209 63.7745L49.8925 58.0813L50.4295 42.1828L40.0733 36.0694H40.0734ZM5.03906 43.8428C5.18125 45.1609 5.39687 46.4703 5.68843 47.7638C6.69546 52.2309 8.59781 56.5075 11.2403 60.2588C11.8455 61.1181 12.4934 61.947 13.1737 62.7491L11.7091 55.2247L11.7284 55.2197L7.505 44.4628L5.03906 43.8428ZM23.3497 57.0997L15.2978 58.3741L16.8798 66.5138C18.2196 67.6846 19.6463 68.7521 21.1477 69.707C23.4359 71.1595 25.8836 72.344 28.4425 73.2373L38.2278 71.0983L37.5491 66.2352L23.3498 57.0992L23.3497 57.0997ZM70.6055 57.1778L60.5711 63.6231L54.0086 71.0255L54.6973 71.9873C56.5766 71.1209 58.3802 70.0898 60.0733 68.9061C63.8186 66.2873 67.0427 62.9211 69.492 59.067C69.8842 58.4503 70.253 57.8186 70.6053 57.1777L70.6055 57.1778ZM51.4211 72.4366L38.9305 73.9405L34.873 74.8241C39.0906 75.4491 43.4225 75.2997 47.5781 74.3845C49.0488 74.0608 50.4975 73.6361 51.9141 73.1248L51.4209 72.4364L51.4211 72.4366Z" fill="#075700"/>
<path d="M90.24 55V26.2H95.4L106.56 39.48L117.68 26.2H122.88V55H118.52V32L106.56 46.24L94.56 32V55H90.24ZM132.349 55C131.389 55 130.523 54.76 129.749 54.28C128.976 53.8 128.349 53.1733 127.869 52.4C127.389 51.6267 127.149 50.76 127.149 49.8V37C127.149 36.04 127.389 35.1733 127.869 34.4C128.349 33.6267 128.976 33 129.749 32.52C130.523 32.04 131.389 31.8 132.349 31.8H145.549C146.509 31.8 147.376 32.04 148.149 32.52C148.949 32.9733 149.576 33.6 150.029 34.4C150.509 35.2 150.749 36.0667 150.749 37V45.56H131.469V49.68C131.469 49.9467 131.563 50.1867 131.749 50.4C131.963 50.5867 132.203 50.68 132.469 50.68H150.749V55H132.349ZM131.469 41.52H146.389V37.12C146.389 36.8533 146.296 36.6267 146.109 36.44C145.923 36.2267 145.696 36.12 145.429 36.12H132.469C132.203 36.12 131.963 36.2267 131.749 36.44C131.563 36.6267 131.469 36.8533 131.469 37.12V41.52ZM160.125 55C159.165 55 158.285 54.76 157.485 54.28C156.711 53.8 156.085 53.1733 155.605 52.4C155.151 51.6267 154.925 50.76 154.925 49.8V31.8H159.245V49.68C159.245 49.9467 159.338 50.1867 159.525 50.4C159.738 50.5867 159.978 50.68 160.245 50.68H173.205C173.471 50.68 173.698 50.5867 173.885 50.4C174.098 50.1867 174.205 49.9467 174.205 49.68V31.8H178.525V49.8C178.525 50.76 178.285 51.6267 177.805 52.4C177.351 53.1733 176.725 53.8 175.925 54.28C175.151 54.76 174.285 55 173.325 55H160.125ZM205.259 55V30.52H193.019V26.2H221.819V30.52H209.579V55H205.259ZM224.65 55V31.8H228.97V55H224.65ZM224.65 28.52V24.2H228.97V28.52H224.65ZM233.363 55V31.8H263.003C263.99 31.8 264.87 32.04 265.643 32.52C266.416 33 267.03 33.6267 267.483 34.4C267.963 35.1733 268.203 36.04 268.203 37V55H263.923V37.12C263.923 36.8533 263.816 36.6267 263.603 36.44C263.416 36.2267 263.19 36.12 262.923 36.12H254.003C253.71 36.12 253.47 36.2267 253.283 36.44C253.096 36.6267 253.003 36.8533 253.003 37.12V55H248.643V37.12C248.643 36.8533 248.536 36.6267 248.323 36.44C248.136 36.2267 247.91 36.12 247.643 36.12H238.683C238.416 36.12 238.19 36.2267 238.003 36.44C237.816 36.6267 237.723 36.8533 237.723 37.12V55H233.363ZM276.959 55C275.999 55 275.132 54.76 274.359 54.28C273.585 53.8 272.959 53.1733 272.479 52.4C271.999 51.6267 271.759 50.76 271.759 49.8V37C271.759 36.04 271.999 35.1733 272.479 34.4C272.959 33.6267 273.585 33 274.359 32.52C275.132 32.04 275.999 31.8 276.959 31.8H290.159C291.119 31.8 291.985 32.04 292.759 32.52C293.559 32.9733 294.185 33.6 294.639 34.4C295.119 35.2 295.359 36.0667 295.359 37V45.56H276.079V49.68C276.079 49.9467 276.172 50.1867 276.359 50.4C276.572 50.5867 276.812 50.68 277.079 50.68H295.359V55H276.959ZM276.079 41.52H290.999V37.12C290.999 36.8533 290.905 36.6267 290.719 36.44C290.532 36.2267 290.305 36.12 290.039 36.12H277.079C276.812 36.12 276.572 36.2267 276.359 36.44C276.172 36.6267 276.079 36.8533 276.079 37.12V41.52Z" fill="#075700"/>
</svg>
